<?xml version="1.0" encoding="UTF-8" standalone="no"?>
<!-- Created with Inkscape (http://www.inkscape.org/) -->

<svg
   xmlns:dc="http://purl.org/dc/elements/1.1/"
   xmlns:cc="http://creativecommons.org/ns#"
   xmlns:rdf="http://www.w3.org/1999/02/22-rdf-syntax-ns#"
   xmlns:svg="http://www.w3.org/2000/svg"
   xmlns="http://www.w3.org/2000/svg"
   xmlns:sodipodi="http://sodipodi.sourceforge.net/DTD/sodipodi-0.dtd"
   xmlns:inkscape="http://www.inkscape.org/namespaces/inkscape"
   width="64px"
   height="64px"
   id="svg8038"
   sodipodi:version="0.32"
   inkscape:version="0.48.4 r9939"
   sodipodi:docname="ic_launcher.svg"
   inkscape:output_extension="org.inkscape.output.svg.inkscape"
   inkscape:export-filename="C:\Temp\paper512.png"
   inkscape:export-xdpi="720"
   inkscape:export-ydpi="720"
   version="1.1">
  <defs
     id="defs8040">
    <linearGradient
       gradientUnits="userSpaceOnUse"
       gradientTransform="scale(0.99994167,1.0000583)"
       id="coin-gradient"
       x1="0.00043946349"
       y1="-0.00059563986"
       x2="0.00043946349"
       y2="63.996321">
      <stop
         offset="0%"
         style="stop-color:#f9aa4b"
         id="stop12" />
      <stop
         offset="100%"
         style="stop-color:#f7931a"
         id="stop14" />
    </linearGradient>
  </defs>
  <sodipodi:namedview
     id="base"
     pagecolor="#ffffff"
     bordercolor="#666666"
     borderopacity="1.0"
     inkscape:pageopacity="0.0"
     inkscape:pageshadow="2"
     inkscape:zoom="5.5"
     inkscape:cx="96.881825"
     inkscape:cy="2.9090909"
     inkscape:current-layer="layer1"
     showgrid="true"
     inkscape:document-units="px"
     inkscape:grid-bbox="true"
     inkscape:window-width="2560"
     inkscape:window-height="1377"
     inkscape:window-x="-8"
     inkscape:window-y="-8"
     inkscape:window-maximized="1" />
  <metadata
     id="metadata8043">
    <rdf:RDF>
      <cc:Work
         rdf:about="">
        <dc:format>image/svg+xml</dc:format>
        <dc:type
           rdf:resource="http://purl.org/dc/dcmitype/StillImage" />
        <dc:title></dc:title>
      </cc:Work>
    </rdf:RDF>
  </metadata>
  <g
     id="layer1"
     inkscape:label="Layer 1"
     inkscape:groupmode="layer">
    <g
       id="g8017"
       transform="matrix(4.2653053,0,0,4.2653053,-8.5203993,-12.785703)">
      <rect
         ry="0.9929148"
         rx="0.98205966"
         y="3.4976056"
         x="3.4976056"
         height="14.004787"
         width="12.004788"
         id="rect2161"
         style="opacity:1;fill:#ffffff;fill-opacity:1;fill-rule:nonzero;stroke:#696969;stroke-width:1;stroke-linecap:round;stroke-linejoin:round;stroke-miterlimit:4;stroke-dasharray:none;stroke-dashoffset:0;stroke-opacity:1" />
      <rect
         ry="0"
         rx="0"
         y="4"
         x="5"
         height="13"
         width="1"
         id="rect3134"
         style="opacity:1;fill:#ffb797;fill-opacity:1;fill-rule:nonzero;stroke:#696969;stroke-width:0;stroke-linecap:round;stroke-linejoin:round;stroke-miterlimit:4;stroke-dasharray:none;stroke-dashoffset:0;stroke-opacity:1" />
      <rect
         y="5"
         x="3"
         height="1"
         width="1"
         id="rect5074"
         style="opacity:1;fill:#a5a5a5;fill-opacity:1;fill-rule:nonzero;stroke:#696969;stroke-width:0;stroke-linecap:round;stroke-linejoin:round;stroke-miterlimit:4;stroke-dasharray:none;stroke-dashoffset:0;stroke-opacity:1" />
      <rect
         y="7"
         x="3"
         height="1"
         width="1"
         id="rect6045"
         style="opacity:1;fill:#a5a5a5;fill-opacity:1;fill-rule:nonzero;stroke:#696969;stroke-width:0;stroke-linecap:round;stroke-linejoin:round;stroke-miterlimit:4;stroke-dasharray:none;stroke-dashoffset:0;stroke-opacity:1" />
      <rect
         y="9"
         x="3"
         height="1"
         width="1"
         id="rect6047"
         style="opacity:1;fill:#a5a5a5;fill-opacity:1;fill-rule:nonzero;stroke:#696969;stroke-width:0;stroke-linecap:round;stroke-linejoin:round;stroke-miterlimit:4;stroke-dasharray:none;stroke-dashoffset:0;stroke-opacity:1" />
      <rect
         y="11"
         x="3"
         height="1"
         width="1"
         id="rect6049"
         style="opacity:1;fill:#a5a5a5;fill-opacity:1;fill-rule:nonzero;stroke:#696969;stroke-width:0;stroke-linecap:round;stroke-linejoin:round;stroke-miterlimit:4;stroke-dasharray:none;stroke-dashoffset:0;stroke-opacity:1" />
      <rect
         y="13"
         x="3"
         height="1"
         width="1"
         id="rect6051"
         style="opacity:1;fill:#a5a5a5;fill-opacity:1;fill-rule:nonzero;stroke:#696969;stroke-width:0;stroke-linecap:round;stroke-linejoin:round;stroke-miterlimit:4;stroke-dasharray:none;stroke-dashoffset:0;stroke-opacity:1" />
      <rect
         y="15"
         x="3"
         height="1"
         width="1"
         id="rect6053"
         style="opacity:1;fill:#a5a5a5;fill-opacity:1;fill-rule:nonzero;stroke:#696969;stroke-width:0;stroke-linecap:round;stroke-linejoin:round;stroke-miterlimit:4;stroke-dasharray:none;stroke-dashoffset:0;stroke-opacity:1" />
      <rect
         y="7"
         x="4"
         height="1"
         width="1"
         id="rect6055"
         style="opacity:1;fill:#c2c7d0;fill-opacity:1;fill-rule:nonzero;stroke:#696969;stroke-width:0;stroke-linecap:round;stroke-linejoin:round;stroke-miterlimit:4;stroke-dasharray:none;stroke-dashoffset:0;stroke-opacity:1" />
      <rect
         y="9"
         x="4"
         height="1"
         width="1"
         id="rect6057"
         style="opacity:1;fill:#a5a5a5;fill-opacity:1;fill-rule:nonzero;stroke:#696969;stroke-width:0;stroke-linecap:round;stroke-linejoin:round;stroke-miterlimit:4;stroke-dasharray:none;stroke-dashoffset:0;stroke-opacity:1" />
      <rect
         y="11"
         x="4"
         height="1"
         width="1"
         id="rect6059"
         style="opacity:1;fill:#a5a5a5;fill-opacity:1;fill-rule:nonzero;stroke:#696969;stroke-width:0;stroke-linecap:round;stroke-linejoin:round;stroke-miterlimit:4;stroke-dasharray:none;stroke-dashoffset:0;stroke-opacity:1" />
      <rect
         y="13"
         x="4"
         height="1"
         width="1"
         id="rect6061"
         style="opacity:1;fill:#a5a5a5;fill-opacity:1;fill-rule:nonzero;stroke:#696969;stroke-width:0;stroke-linecap:round;stroke-linejoin:round;stroke-miterlimit:4;stroke-dasharray:none;stroke-dashoffset:0;stroke-opacity:1" />
      <rect
         y="15"
         x="4"
         height="1"
         width="1"
         id="rect6063"
         style="opacity:1;fill:#a5a5a5;fill-opacity:1;fill-rule:nonzero;stroke:#696969;stroke-width:0;stroke-linecap:round;stroke-linejoin:round;stroke-miterlimit:4;stroke-dasharray:none;stroke-dashoffset:0;stroke-opacity:1" />
      <rect
         y="5"
         x="4"
         height="1"
         width="1"
         id="rect6065"
         style="opacity:1;fill:#e1e1e1;fill-opacity:1;fill-rule:nonzero;stroke:#696969;stroke-width:0;stroke-linecap:round;stroke-linejoin:round;stroke-miterlimit:4;stroke-dasharray:none;stroke-dashoffset:0;stroke-opacity:1" />
      <rect
         ry="1"
         rx="0"
         y="7"
         x="6"
         height="1"
         width="9"
         id="rect7036"
         style="opacity:1;fill:#d8dfea;fill-opacity:1;fill-rule:nonzero;stroke:#696969;stroke-width:0;stroke-linecap:round;stroke-linejoin:round;stroke-miterlimit:4;stroke-dasharray:none;stroke-dashoffset:0;stroke-opacity:1" />
      <rect
         ry="1"
         rx="0"
         y="9"
         x="6"
         height="1"
         width="9"
         id="rect7038"
         style="opacity:1;fill:#d8dfea;fill-opacity:1;fill-rule:nonzero;stroke:#696969;stroke-width:0;stroke-linecap:round;stroke-linejoin:round;stroke-miterlimit:4;stroke-dasharray:none;stroke-dashoffset:0;stroke-opacity:1" />
      <rect
         ry="1"
         rx="0"
         y="11"
         x="6"
         height="1"
         width="9"
         id="rect7040"
         style="opacity:1;fill:#d8dfea;fill-opacity:1;fill-rule:nonzero;stroke:#696969;stroke-width:0;stroke-linecap:round;stroke-linejoin:round;stroke-miterlimit:4;stroke-dasharray:none;stroke-dashoffset:0;stroke-opacity:1" />
      <rect
         ry="1"
         rx="0"
         y="13"
         x="6"
         height="1"
         width="9"
         id="rect7042"
         style="opacity:1;fill:#d8dfea;fill-opacity:1;fill-rule:nonzero;stroke:#696969;stroke-width:0;stroke-linecap:round;stroke-linejoin:round;stroke-miterlimit:4;stroke-dasharray:none;stroke-dashoffset:0;stroke-opacity:1" />
      <rect
         ry="1"
         rx="0"
         y="15"
         x="6"
         height="1"
         width="9"
         id="rect7044"
         style="opacity:1;fill:#d8dfea;fill-opacity:1;fill-rule:nonzero;stroke:#696969;stroke-width:0;stroke-linecap:round;stroke-linejoin:round;stroke-miterlimit:4;stroke-dasharray:none;stroke-dashoffset:0;stroke-opacity:1" />
    </g>
    <g
       transform="matrix(0.41682523,0,0,0.41682523,22.027078,13.32577)"
       id="g16">
      <path
         inkscape:connector-curvature="0"
         id="coin"
         d="M 63.0359,39.741 C 58.7619,56.884 41.3989,67.317 24.2539,63.042 7.1159,58.768 -3.3171,41.404 0.9589,24.262 5.2309,7.117 22.5939,-3.317 39.7339,0.957 c 17.144,4.274 27.576,21.64 23.302,38.784 z"
         style="fill:url(#coin-gradient)" />
      <path
         inkscape:connector-curvature="0"
         id="symbol"
         d="m 46.1009,27.441 c 0.637,-4.258 -2.605,-6.547 -7.038,-8.074 l 1.438,-5.768 -3.511,-0.875 -1.4,5.616 c -0.923,-0.23 -1.871,-0.447 -2.813,-0.662 l 1.41,-5.653 -3.509,-0.875 -1.439,5.766 c -0.764,-0.174 -1.514,-0.346 -2.242,-0.527 l 0.004,-0.018 -4.842,-1.209 -0.934,3.75 c 0,0 2.605,0.597 2.55,0.634 1.422,0.355 1.679,1.296 1.636,2.042 l -1.638,6.571 c 0.098,0.025 0.225,0.061 0.365,0.117 -0.117,-0.029 -0.242,-0.061 -0.371,-0.092 l -2.296,9.205 c -0.174,0.432 -0.615,1.08 -1.609,0.834 0.035,0.051 -2.552,-0.637 -2.552,-0.637 l -1.743,4.019 4.569,1.139 c 0.85,0.213 1.683,0.436 2.503,0.646 l -1.453,5.834 3.507,0.875 1.439,-5.772 c 0.958,0.26 1.888,0.5 2.798,0.726 l -1.434,5.745 3.511,0.875 1.453,-5.823 c 5.987,1.133 10.489,0.676 12.384,-4.739 1.527,-4.36 -0.076,-6.875 -3.226,-8.515 2.294,-0.529 4.022,-2.038 4.483,-5.155 z m -8.022,11.249 c -1.085,4.36 -8.426,2.003 -10.806,1.412 l 1.928,-7.729 c 2.38,0.594 10.012,1.77 8.878,6.317 z m 1.086,-11.312 c -0.99,3.966 -7.1,1.951 -9.082,1.457 l 1.748,-7.01 c 1.982,0.494 8.365,1.416 7.334,5.553 z"
         style="fill:#ffffff" />
    </g>
  </g>
</svg>
